REM DIRINDEX 1\2,1\3,1\4,1\5,1\6
REM DIRNAME "folder01","folder02","folder03","folder04","folder05","folder06"
TITLE ""
FILE "Disc6Track07.mp3" MP3
  TRACK 01 AUDIO
    TITLE "3:cjc161_10687"
    INDEX 01 00:00:00
  TRACK 02 AUDIO
    TITLE "4:cjc161_10688"
    INDEX 01 00:01:02
  TRACK 03 AUDIO
    TITLE "5:cjc161_10689"
    INDEX 01 00:02:54
  TRACK 04 AUDIO
    TITLE "6:cjc161_10690"
    INDEX 01 00:03:67
  TRACK 05 AUDIO
    TITLE "0:"
    INDEX 01 00:08:61
  TRACK 06 AUDIO
    TITLE "3:cjc161_10691"
    INDEX 01 00:09:17
  TRACK 07 AUDIO
    TITLE "4:cjc161_10692"
    INDEX 01 00:10:28
  TRACK 08 AUDIO
    TITLE "5:cjc161_10693"
    INDEX 01 00:12:25
  TRACK 09 AUDIO
    TITLE "6:cjc161_10694"
    INDEX 01 00:13:36
  TRACK 10 AUDIO
    TITLE "0:"
    INDEX 01 00:16:05
  TRACK 11 AUDIO
    TITLE "3:cjc161_10695"
    INDEX 01 00:16:35
  TRACK 12 AUDIO
    TITLE "4:cjc161_10696"
    INDEX 01 00:17:50
  TRACK 13 AUDIO
    TITLE "5:cjc161_10697"
    INDEX 01 00:18:67
  TRACK 14 AUDIO
    TITLE "0:"
    INDEX 01 00:20:09
  TRACK 15 AUDIO
    TITLE "3:cjc161_10698"
    INDEX 01 00:20:46
  TRACK 16 AUDIO
    TITLE "4:cjc161_10699"
    INDEX 01 00:21:58
  TRACK 17 AUDIO
    TITLE "5:cjc161_10700"
    INDEX 01 00:23:41
  TRACK 18 AUDIO
    TITLE "6:cjc161_10701"
    INDEX 01 00:24:52
  TRACK 19 AUDIO
    TITLE "0:"
    INDEX 01 00:26:55
  TRACK 20 AUDIO
    TITLE "3:cjc161_10702"
    INDEX 01 00:27:11
  TRACK 21 AUDIO
    TITLE "4:cjc161_10703"
    INDEX 01 00:28:32
  TRACK 22 AUDIO
    TITLE "5:cjc161_10704"
    INDEX 01 00:29:57
  TRACK 23 AUDIO
    TITLE "0:"
    INDEX 01 00:31:05
  TRACK 24 AUDIO
    TITLE "3:cjc161_10705"
    INDEX 01 00:31:42
  TRACK 25 AUDIO
    TITLE "4:cjc161_10706"
    INDEX 01 00:32:53
  TRACK 26 AUDIO
    TITLE "5:cjc161_10707"
    INDEX 01 00:35:38
  TRACK 27 AUDIO
    TITLE "6:cjc161_10708"
    INDEX 01 00:36:45
  TRACK 28 AUDIO
    TITLE "0:"
    INDEX 01 00:38:40
  TRACK 29 AUDIO
    TITLE "3:cjc161_10709"
    INDEX 01 00:38:72
  TRACK 30 AUDIO
    TITLE "4:cjc161_10710"
    INDEX 01 00:40:10
  TRACK 31 AUDIO
    TITLE "5:cjc161_10711"
    INDEX 01 00:42:09
  TRACK 32 AUDIO
    TITLE "0:"
    INDEX 01 00:43:24
  TRACK 33 AUDIO
    TITLE "3:cjc161_10712"
    INDEX 01 00:43:57
  TRACK 34 AUDIO
    TITLE "4:cjc161_10713"
    INDEX 01 00:44:70
  TRACK 35 AUDIO
    TITLE "5:cjc161_10714"
    INDEX 01 00:47:49
  TRACK 36 AUDIO
    TITLE "6:cjc161_10715"
    INDEX 01 00:48:58
  TRACK 37 AUDIO
    TITLE "0:"
    INDEX 01 00:52:33
  TRACK 38 AUDIO
    TITLE "3:cjc161_10716"
    INDEX 01 00:52:62
  TRACK 39 AUDIO
    TITLE "4:cjc161_10717"
    INDEX 01 00:54:02
  TRACK 40 AUDIO
    TITLE "5:cjc161_10718"
    INDEX 01 00:55:52
  TRACK 41 AUDIO
    TITLE "6:cjc161_10719"
    INDEX 01 00:56:68
  TRACK 42 AUDIO
    TITLE "0:"
    INDEX 01 00:59:27
  TRACK 43 AUDIO
    TITLE "3:cjc161_10720"
    INDEX 01 00:59:58
  TRACK 44 AUDIO
    TITLE "4:cjc161_10721"
    INDEX 01 01:00:71
  TRACK 45 AUDIO
    TITLE "5:cjc161_10722"
    INDEX 01 01:01:57
  TRACK 46 AUDIO
    TITLE "6:cjc161_10723"
    INDEX 01 01:02:70
  TRACK 47 AUDIO
    TITLE "0:"
    INDEX 01 01:07:64
  TRACK 48 AUDIO
    TITLE "3:cjc161_10724"
    INDEX 01 01:08:16
  TRACK 49 AUDIO
    TITLE "4:cjc161_10725"
    INDEX 01 01:09:39
  TRACK 50 AUDIO
    TITLE "5:cjc161_10726"
    INDEX 01 01:11:24
  TRACK 51 AUDIO
    TITLE "6:cjc161_10727"
    INDEX 01 01:12:43
  TRACK 52 AUDIO
    TITLE "0:"
    INDEX 01 01:14:22
  TRACK 53 AUDIO
    TITLE "3:cjc161_10728"
    INDEX 01 01:14:54
  TRACK 54 AUDIO
    TITLE "4:cjc161_10729"
    INDEX 01 01:15:73
  TRACK 55 AUDIO
    TITLE "5:cjc161_10730"
    INDEX 01 01:17:03
  TRACK 56 AUDIO
    TITLE "0:"
    INDEX 01 01:18:24
  TRACK 57 AUDIO
    TITLE "3:cjc161_10731"
    INDEX 01 01:18:63
  TRACK 58 AUDIO
    TITLE "4:cjc161_10732"
    INDEX 01 01:19:71
  TRACK 59 AUDIO
    TITLE "5:cjc161_10733"
    INDEX 01 01:21:03
  TRACK 60 AUDIO
    TITLE "0:"
    INDEX 01 01:22:12
  TRACK 61 AUDIO
    TITLE "3:cjc161_10734"
    INDEX 01 01:22:49
  TRACK 62 AUDIO
    TITLE "4:cjc161_10735"
    INDEX 01 01:23:59
  TRACK 63 AUDIO
    TITLE "5:cjc161_10736"
    INDEX 01 01:24:68
  TRACK 64 AUDIO
    TITLE "0:"
    INDEX 01 01:26:04
  TRACK 65 AUDIO
    TITLE "3:cjc161_10737"
    INDEX 01 01:26:31
  TRACK 66 AUDIO
    TITLE "4:cjc161_10738"
    INDEX 01 01:27:56
  TRACK 67 AUDIO
    TITLE "5:cjc161_10739"
    INDEX 01 01:29:53
  TRACK 68 AUDIO
    TITLE "6:cjc161_10740"
    INDEX 01 01:31:01
  TRACK 69 AUDIO
    TITLE "0:"
    INDEX 01 01:34:33
